<svg width="200" height="193" viewBox="0 0 200 193" fill="none" xmlns="http://www.w3.org/2000/svg">
<path d="M39.0786 187.423C44.2461 191.173 50.2455 192.983 56.2011 192.983C65.164 192.983 74.0095 188.883 79.7023 181.177C79.7186 181.161 79.734 181.144 79.7486 181.126C79.7623 181.108 79.7761 181.09 79.789 181.072L79.8087 181.043C79.8224 181.024 79.8353 181.006 79.8482 180.988L99.9924 153.306L120.137 180.988C120.156 181.018 120.177 181.041 120.197 181.066C120.206 181.079 120.215 181.091 120.224 181.104C129.713 194.019 147.944 196.864 160.921 187.437C173.913 178.011 176.817 159.785 167.446 146.769L167.425 146.737C167.408 146.709 167.394 146.688 167.373 146.667L147.272 118.97L179.839 108.377C195.137 103.401 203.545 86.8971 198.567 71.6038C193.59 56.3114 177.095 47.9063 161.782 52.8677L129.217 63.418L129.202 29.1699C129.186 13.0892 116.093 0 100.007 0C83.9211 0 70.8276 13.0892 70.813 29.1845L70.7838 63.4035L38.2175 52.8531C38.2046 52.8531 38.1889 52.8502 38.1731 52.8458C38.1526 52.8403 38.1315 52.832 38.1151 52.8239C22.8319 47.9209 6.39552 56.3259 1.4325 71.5901C-3.53059 86.8534 4.81912 103.299 20.0439 108.318C20.0579 108.323 20.0706 108.328 20.0827 108.333L20.1363 108.354L20.1608 108.362L52.7123 118.956L32.612 146.652C32.6047 146.667 32.5938 146.682 32.5829 146.696C32.5719 146.711 32.5611 146.725 32.5538 146.74C23.1677 159.756 26.0871 177.996 39.0786 187.423Z" fill="#2F80ED"/>
</svg>
