<svg width="200" height="205" viewBox="0 0 200 205" fill="none" xmlns="http://www.w3.org/2000/svg">
<path d="M157.776 31.5779C128.565 33.0833 120.551 7.45872 95.9412 1.45946C69.7324 -4.93241 57.9033 10.9703 55.1023 23.9727C52.9432 33.9958 48.4049 38.3465 36.4439 41.1335C27.9186 42.6983 20.3644 47.131 22.343 59.2897C24.3217 71.4485 20.3111 78.7084 14.3408 83.0577C8.37048 87.408 2.80038 93.5834 0.84131 101.629C-2.47689 115.247 4.26857 129.512 16.7007 135.836C30.6711 142.792 38.1741 150.406 37.1928 166.198C36.9476 170.145 38.5938 191.145 58.5682 184.797C63.613 183.194 84.4823 172.383 97.1468 192.448C100.3 197.445 108.109 202.361 115.244 204.103C134.379 208.768 153.942 194.655 155.884 175.222C157.992 160.844 160.606 154.101 176.142 159.123C191.514 164.093 200.712 142.686 192.111 131.704C180.174 119.327 194.418 97.0677 198.942 78.4942C205.125 53.1064 183.274 28.813 157.776 31.5779Z" fill="#FF94F4"/>
</svg>
